<?xml version="1.0" encoding="utf-8"?>
<!-- Generator: Adobe Illustrator 19.1.0, SVG Export Plug-In . SVG Version: 6.00 Build 0)  -->
<svg version="1.1" id="Layer_1" xmlns="http://www.w3.org/2000/svg" xmlns:xlink="http://www.w3.org/1999/xlink" x="0px" y="0px"
	 viewBox="0 0 19.8 14.6" style="enable-background:new 0 0 19.8 14.6;" xml:space="preserve">
<style type="text/css">
	.st0{fill:#81CAA7;}
</style>
<path id="Email" class="st0" d="M19.3,0H0.5C0.2,0,0,0.2,0,0.5V14c0,0.3,0.2,0.5,0.5,0.5h18.7c0.3,0,0.5-0.2,0.5-0.5V0.5
	C19.8,0.2,19.6,0,19.3,0z M18,1.1L9.9,9l-8.1-8H18z M1.1,1.8l4.6,4.4l-4.6,6.4V1.8z M1.9,13.5l4.5-6.4l3.1,3.1
	c0.2,0.2,0.5,0.2,0.8,0l3.1-3.1l4.5,6.4H1.9z M18.7,12.7l-4.6-6.4l4.6-4.4V12.7z"/>
</svg>
