<?xml version="1.0" encoding="utf-8"?>
<!-- Generator: Adobe Illustrator 19.1.0, SVG Export Plug-In . SVG Version: 6.00 Build 0)  -->
<svg version="1.1" id="Layer_1" xmlns="http://www.w3.org/2000/svg" xmlns:xlink="http://www.w3.org/1999/xlink" x="0px" y="0px"
	 viewBox="-498.1 377.5 14.5 14.5" style="enable-background:new -498.1 377.5 14.5 14.5;" xml:space="preserve">
<style type="text/css">
	.st0{fill:#81CAA7;}
</style>
<g>
	<path class="st0" d="M-490.8,392c-4,0-7.2-3.3-7.2-7.2c0-4,3.3-7.2,7.2-7.2c4,0,7.2,3.3,7.2,7.2C-483.6,388.7-486.8,392-490.8,392z
		 M-490.8,378.5c-3.4,0-6.2,2.8-6.2,6.2s2.8,6.2,6.2,6.2s6.2-2.8,6.2-6.2S-487.4,378.5-490.8,378.5z"/>
</g>
<g>
	<path class="st0" d="M-491.6,380.9c0-0.4,0.3-0.7,0.7-0.7s0.7,0.3,0.7,0.7c0,0.4-0.3,0.7-0.7,0.7S-491.6,381.3-491.6,380.9z
		 M-491.4,382.9h1.1v6.3h-1.1V382.9z"/>
</g>
</svg>
