<svg version="1.1" id="Layer_1" x="0px" y="0px"
	 viewBox="0 0 134.3 109.4" style="enable-background:new 0 0 134.3 109.4;" xml:space="preserve">
<style type="text/css">
	.st0{opacity:0.7;fill:#FFFFFF;}
</style>
<path class="st0" d="M134.2,33.6l-11.1-18.1c0-0.1-0.1-0.1-0.2-0.2L92.6,0.1c0,0-0.1,0-0.1,0c0,0-0.1,0-0.1,0c0,0,0,0,0,0
	c0,0,0,0,0,0c0,0-0.1,0-0.1,0c0,0-0.1,0-0.1,0.1c0,0,0,0,0,0L67,19.3L41.6,0.6c0,0,0,0,0,0c0,0-0.1,0-0.1,0c0,0-0.1,0-0.1,0
	c0,0,0,0,0,0c0,0,0,0,0,0c0,0-0.1,0-0.1,0c0,0-0.1,0-0.1,0l-30,15.8c-0.1,0-0.2,0.1-0.2,0.2L0.1,35c-0.1,0.2-0.1,0.4,0,0.5
	c0,0,0,0,0.1,0.1c0,0,0,0,0,0L33,73.8c0,0,0,0,0,0c0,0,0,0,0,0l34.5,35.3c0.1,0.1,0.1,0.2,0.2,0.2c0.1,0,0.1,0,0.2,0
	c0.1,0,0.3-0.1,0.4-0.2l34-36.2c0.1-0.1,0.1-0.2,0.1-0.3l31.7-38.6c0,0,0,0,0,0c0,0,0,0,0.1-0.1C134.3,33.9,134.3,33.7,134.2,33.6z
	 M100.7,34.4L68.1,71.6l-0.3-24.6L101,34.1L100.7,34.4z M66.8,47L67,71.6L33.4,34.8L66.8,47z M95.8,41.5l6.4-7.3l-0.7,29.3l-0.2,8.6
	l-32.5,0.1L95.8,41.5z M68.4,45.7L89.2,7.3l3-5.6l9.8,30.8L68.4,45.7z M66.2,45.7l-19.4-7.1l-14.6-5.3l9.2-31l2.3,4L66.2,45.7z
	 M66.5,72.5L33.9,73l-1.7-38L66.5,72.5z M89.1,5.5l-21.2,39l-0.3-24.4L90.8,2.3L89.1,5.5z M66.7,44.6L43.1,3.2l-0.2-0.4l23.6,17.3
	L66.7,44.6z M67.1,73.5l0.4,34.1L34.6,74L67.1,73.5z M68.1,73.5l32.6-0.2l-32.3,34.4L68.1,73.5z M132.9,33.3l-29.7-0.9l-0.1,0
	l-6.2-19.5L93.2,1.5l29.1,14.6L132.9,33.3z M11.7,17.2L40.5,2l-9.2,31.1L1.4,34.7L11.7,17.2z M1.6,35.7l29.2-1.5l0.4,0l1.7,37.9
	L1.6,35.7z M102.3,71.3l0.9-37.9l6.1,0.2l23.5,0.7L102.3,71.3z"/>
</svg>
