<?xml version="1.0" encoding="utf-8"?>
<!-- Generator: Adobe Illustrator 19.1.0, SVG Export Plug-In . SVG Version: 6.00 Build 0)  -->
<svg version="1.1" id="Layer_1" xmlns="http://www.w3.org/2000/svg" xmlns:xlink="http://www.w3.org/1999/xlink" x="0px" y="0px"
	 viewBox="0 0 40 39.7" style="enable-background:new 0 0 40 39.7;" xml:space="preserve">
<style type="text/css">
	.st0{fill:#EAEAEA;}
	.st1{fill:#F4F4F4;}
	.st2{fill:#BCBCBC;}
	.st3{fill:#D4D3D3;}
	.st4{fill:#414042;}
	.st5{fill:#CECCCC;}
</style>
<g>
	<path class="st0" d="M39.2,14c0-0.1,0-0.3,0-0.4c0-0.1,0-0.2,0-0.3c-0.4-0.3-0.8-0.6-1.2-0.8c-0.5-0.3-0.9-0.5-1.4-0.7
		c-0.5-0.2-1-0.4-1.5-0.6c-0.3-0.1-0.5-0.2-0.8-0.3c-0.3-0.1-0.5-0.2-0.8-0.3c0.5,0.1,1.1,0.2,1.6,0.3c0.3,0.1,0.7,0.2,1,0.3
		C33.6,4.9,27.9,0.8,21.5,0.8C15.2,0.8,9.4,4.9,7,11.2c0.3-0.1,0.7-0.2,1-0.3c0.5-0.1,1.1-0.3,1.6-0.3c-0.3,0.1-0.5,0.2-0.8,0.3
		c-0.3,0.1-0.5,0.2-0.8,0.3c-0.5,0.2-1,0.4-1.5,0.6c-0.5,0.2-1,0.5-1.4,0.7C4.8,12.8,4.3,13,4,13.3c0,0.1,0,0.2,0,0.3
		c0,0.1,0,0.3,0,0.4c0,0.3,0,0.5,0,0.8c0,0.5,0,1.1,0.1,1.6C4,17,4.1,17.5,4.3,18c0.1,0.3,0.2,0.5,0.2,0.8c0,0.1,0.1,0.2,0.2,0.4
		c0,0.1,0.1,0.1,0.1,0.2l0,0.1c0,0,0.1,0,0.1,0.1l0.2,0.1c0.1,0.1,0.3,0.1,0.5,0.2c0,0,0,0,0,0l-0.4-1.7c0.1,0,0.9-0.2,2.4-0.5
		c-0.1,0-0.2,0-0.4-0.1c-0.3-0.1-0.7-0.2-1-0.3C6.1,17.1,6,17,5.8,16.9c-0.1-0.1-0.3-0.2-0.4-0.3c1.6,0.5,4.9,0.3,7.9,0
		c2.7-0.3,5.4-0.5,8.1-0.5c2.7,0,5.4,0.2,8.1,0.5c3,0.3,6.3,0.5,7.9,0c-0.1,0.1-0.3,0.2-0.4,0.3c-0.1,0.1-0.3,0.2-0.5,0.2
		c-0.3,0.1-0.6,0.2-1,0.3c0,0-0.1,0-0.1,0c1.6,0.3,2.5,0.5,2.6,0.6l-0.4,1.6c0.1,0,0.2-0.1,0.3-0.1l0.2-0.1c0,0,0.1,0,0.1-0.1l0-0.1
		c0-0.1,0.1-0.1,0.1-0.2c0.1-0.1,0.1-0.2,0.2-0.4c0.1-0.2,0.2-0.5,0.2-0.8c0.1-0.5,0.2-1.1,0.3-1.6c0.1-0.5,0.1-1.1,0.1-1.6
		C39.2,14.6,39.2,14.3,39.2,14z"/>
	<path class="st1" d="M23.4,36.5c-0.2,0-0.4,0.1-0.6,0.1c-0.1,0-0.3,0-0.4,0l0,0c0.2-0.4,0.3-0.7,0.4-0.9
		C22.8,36,23.1,36.2,23.4,36.5z"/>
	<path class="st1" d="M23.8,37c0.7,0.7,1.5,1,2.4,1.1c-1.5,0.6-2.9,0.9-4,0.9c-1.1,0.1-2.2-0.1-3.3-0.4c0.1,0,0.2,0,0.2,0
		c0.1,0,2-0.3,2.9-1.6l0.1,0l0.2,0c0.1,0,0.3,0,0.4,0c0.3,0,0.7-0.1,1-0.1C23.8,36.9,23.8,37,23.8,37z"/>
	<path class="st2" d="M25.7,17.4c-0.1,0.1-0.1,0.2-0.2,0.3c-0.4,0.5-0.9,1.1-1.6,1.7c-0.7,0-1.5,0-2.3,0c-1.3,0-2.5,0-3.7,0.1
		c1.7-0.7,3.7-1.4,5.8-1.8C24.4,17.6,25,17.5,25.7,17.4z"/>
	<path class="st2" d="M16,18.2c-0.6,0.4-1.3,0.9-1.9,1.6c-1.7,0.2-3.1,0.4-4.3,0.6C11.6,19.5,13.7,18.7,16,18.2z"/>
	<path class="st2" d="M36.3,21.6l-0.7,4.7l-3.2,2.3l-8.5-1l-1.3-4.2c0-0.1-0.1-0.2-0.2-0.2c-0.3-0.1-0.6-0.1-0.8-0.1
		c-0.2,0-0.5,0-0.8,0.1c-0.1,0-0.2,0.1-0.2,0.2l-1.2,4.1l-8.4,1.9l-3.3-2.3l-0.7-5.3c0.1-0.1,0.3-0.2,0.4-0.2c0.2,0,0.4-0.1,0.7-0.1
		l0.6,5c0,0.1,0.1,0.1,0.1,0.2l2.3,1.6c0,0,0.1,0,0.2,0c0,0,0,0,0.1,0l6.9-1.5c0,0,0,0,0.1,0c0.1,0,0.1-0.1,0.1-0.2l1.2-4.1
		c0.3-0.1,1.2-0.3,1.9-0.3c0.7,0,1.6,0.2,1.9,0.3l1.2,4.1c0,0.1,0.1,0.2,0.2,0.2l6.9,0.8c0.1,0,0.1,0,0.2,0l2.3-1.6
		c0.1,0,0.1-0.1,0.1-0.2l0.6-4.3C35.6,21.4,36,21.5,36.3,21.6z"/>
	<path class="st2" d="M37.2,18.6l-0.6,2.3c-1.2-0.3-3.9-0.8-7.5-1.1c1.2-0.5,2.4-1.1,3.5-1.9C34.7,18.1,36.3,18.4,37.2,18.6z"/>
	<g>
		<path class="st1" d="M12.8,25.7c0.5-0.3,1-0.2,1.8-0.2c0.1,0,0.2,0,0.3,0c0.1,0,0.2,0,0.3,0c0.9,0,1.6,0.1,1.6-1.3
			c0-1.3-0.6-2.4-1.5-2.4c-0.9,0-1.7,1.1-1.6,2.5c0,0.4,0.1,0.6,0.1,0.8C13,25.2,12.8,25.7,12.8,25.7z M23.1,20.1
			c-0.3,0.3-0.7,0.5-1,0.7l-1.2,0.7c-0.8,0.1-1.4,0.3-1.5,0.3c0,0,0,0-0.1,0c-0.1,0-0.1,0.1-0.1,0.2l-1.2,4.1l-6.6,1.5l-2.1-1.5
			l-0.6-4.9c1.2-0.2,2.8-0.5,4.7-0.7c-0.2,0.2-0.4,0.5-0.6,0.8L11.6,23l1.7-1.1c0,0,1.1-0.7,2.8-1.6c1.7-0.1,3.6-0.2,5.6-0.2
			C22.1,20.1,22.6,20.1,23.1,20.1z"/>
		<path class="st1" d="M30.4,25.1c0,0-0.2-0.6-1-0.5c0.1-0.2,0.1-0.5,0.1-0.8c-0.1-1.3-0.9-2.4-1.7-2.4c-0.9,0-1.4,1.1-1.4,2.5
			c0,1.3,0.8,1.3,1.6,1.3C29.2,25.2,29.8,24.9,30.4,25.1z M34.6,21.3L34,25.4l-2.1,1.5l-6.6-0.8L24,22.1c0-0.1-0.1-0.2-0.2-0.2
			c0,0-0.9-0.2-1.7-0.3l0.2,0c0.1,0,2.4-0.3,5.2-1.2C30.4,20.6,32.9,21,34.6,21.3z"/>
	</g>
	<path class="st1" d="M37.5,23.1c0.1,0.1,0.2,0.3,0.1,1.3c-0.1,1.2-0.6,3.4-1,3.8c-0.4,0.1-1.1,0-1.6-0.1c0.1-0.3,0.1-0.5,0.2-0.8
		l0.8-0.6c0.1,0,0.1-0.1,0.1-0.2l0.6-3.9C37,22.8,37.4,23,37.5,23.1z"/>
	<path class="st1" d="M8.2,28.2c0,0.1,0.1,0.3,0.1,0.4c-0.4,0.1-1.3,0.2-1.7,0.2c-0.3-0.3-0.9-2.6-1.1-3.8c-0.1-1,0-1.2,0.1-1.3
		c0.1-0.1,0.5-0.3,0.9-0.5L7,27.3c0,0.1,0.1,0.1,0.1,0.2L8.2,28.2z"/>
	<path class="st1" d="M24.3,28.2l0,0.3c0,0-0.9,0.8-2.4,1c-1.5,0.2-2.6-0.7-2.6-0.7c0,0.2,0.1,0.5,0.5,0.8c-0.4,0-0.8-0.1-1.3-0.1
		c-0.2,0-0.3,0-0.5,0c-0.9,0-2.2,1.4-3.1,2.8c-0.4,0.1-1.8,0.6-3.4,1c-1.5-2.1-2.2-4.2-2.3-4.4l0,0c0-0.1-0.1-0.2-0.1-0.3l0.4,0.3v0
		l0.9,0.7l0.3,0.2c0,0,0.1,0.1,0.2,0.1c0,0,0,0,0.1,0l8.7-1.9c0.1,0,0.2-0.1,0.2-0.2l1.2-4.1c0.2,0,0.4,0,0.6,0c0.2,0,0.3,0,0.6,0
		l1.3,4.2c0,0.1,0.1,0.2,0.2,0.2L24.3,28.2z"/>
	<path class="st1" d="M34.2,28l0.3-0.2c0,0.2-0.1,0.4-0.1,0.6c-0.4,1.2-0.8,2.4-1.4,3.3c-0.1,0-0.2,0-0.4,0c-0.4,0-0.8,0-1.2-0.1
		c-0.8-0.1-2-0.2-2.4-0.3c-0.3-0.3-1.5-1.2-2.4-1.9c0,0-0.1-0.1-0.1-0.1c-0.2-0.1-0.4-0.3-0.7-0.3c-0.4,0-0.9,0.1-2.1,0.5
		c0.6-0.5,0.6-1.1,0.6-1.1l0-0.3l8.1,0.9c0.1,0,0.1,0,0.2,0l0.8-0.6L34.2,28z"/>
	<path class="st1" d="M31.5,17.5C31.5,17.5,31.5,17.5,31.5,17.5c-0.1,0-0.1,0.1-0.2,0.1c-2.7,1.9-5.8,2.7-7.6,3
		c1.3-1,2.2-2.3,2.7-2.9c0.2-0.2,0.3-0.4,0.3-0.4c0.9,0,1.8,0.1,2.7,0.1C30.1,17.4,30.8,17.4,31.5,17.5z"/>
	<path class="st3" d="M28.2,10.9c0,0.7,0,2-0.3,3.3c0,0,0,0.1,0,0.1c-0.4,0-0.9-0.1-1.3-0.1c0.5-1,0.6-2.1,0.6-2.5
		C27.5,11.4,27.9,11.1,28.2,10.9z"/>
	<path class="st3" d="M15.9,11.7c0,0.4,0.1,1.5,0.6,2.5c-0.4,0-0.9,0.1-1.3,0.1c0,0,0-0.1,0-0.1c-0.3-1.2-0.4-2.5-0.3-3.3
		C15.2,11.1,15.5,11.4,15.9,11.7z"/>
	<path class="st4" d="M30.4,25.1c-0.6-0.3-1.2,0.1-2.4,0.1c-0.9,0-1.6,0-1.6-1.3c0-1.3,0.5-2.5,1.4-2.5c0.9,0,1.6,1,1.7,2.4
		c0,0.4,0,0.6-0.1,0.8C30.2,24.6,30.4,25.1,30.4,25.1z M27.7,23.2c0.2,0,0.4-0.2,0.4-0.4c0-0.2-0.2-0.4-0.4-0.4
		c-0.2,0-0.4,0.2-0.4,0.4C27.2,23,27.4,23.2,27.7,23.2z"/>
	<circle class="st1" cx="27.7" cy="22.7" r="0.4"/>
	<path class="st4" d="M16.7,24.2c0,1.3-0.7,1.3-1.6,1.3c-0.1,0-0.2,0-0.3,0c-0.1,0-0.2,0-0.3,0c-0.8,0-1.4,0-1.8,0.2
		c0,0,0.2-0.5,1-0.7c-0.1-0.2-0.1-0.4-0.1-0.8c-0.1-1.3,0.8-2.5,1.6-2.5C16.1,21.8,16.7,22.8,16.7,24.2z M15.4,23.5
		c0.2,0,0.4-0.2,0.4-0.5c0-0.2-0.2-0.4-0.5-0.4c-0.2,0-0.4,0.2-0.4,0.5C14.9,23.3,15.1,23.5,15.4,23.5z"/>
	<circle class="st1" cx="15.4" cy="23" r="0.4"/>
	<g>
		<path class="st3" d="M10.1,15c0,0,0.1-1.7,0.4-2.4c0.1-0.3,1-0.6,1.7-0.7c0.7-0.2,1.7-0.5,1.9,0.5c0.2,0.9,0.5,1.6,0.7,1.9
			l-0.3-3.8l-4.5,1.1l-0.3,3.4l0.1,0.3L10.1,15"/>
		<path class="st3" d="M33,15c0,0-0.1-1.7-0.4-2.4c-0.1-0.3-1-0.6-1.7-0.7c-0.7-0.2-1.7-0.5-1.9,0.5c-0.2,0.9-0.5,1.6-0.7,1.9
			l0.3-3.8l4.5,1.1l0.3,3.4l-0.1,0.3L33,15"/>
	</g>
	<path class="st3" d="M26.6,3.7c0,0-0.1,9.1-2.2,9.1c-2.1,0-2.5,0-2.5,0h-0.4c0,0-0.4,0-2.6,0c-2.1,0-2.3-9.1-2.3-9.1l-1,3.1l0,4.2
		l0.7,0.6l0.3,1.8l0.5,1.1l9.1,0l0.4-0.8l0.4-1.3l0.1-0.8l1-2.9L26.6,3.7z"/>
	<path class="st3" d="M33.3,12.2c0,0,0.4,3.1,1.6,3.7c1.2,0.6,0,0,0,0l-1.6-0.5L33.3,12.2z"/>
	<path class="st3" d="M9.8,12.2c0,0-0.4,3.1-1.6,3.7c-1.2,0.6,0,0,0,0l1.6-0.5L9.8,12.2z"/>
	<path class="st4" d="M33.6,15.4c0.6,0.2,1.1,0.4,1.6,0.7c-0.3-0.1-0.5-0.2-0.8-0.3c-0.3-0.1-0.6-0.1-0.8-0.2
		c-0.6-0.1-1.1-0.2-1.7-0.3c-0.6-0.1-1.1-0.1-1.7-0.2c-0.6,0-1.1-0.1-1.7-0.1c-2.3-0.1-4.6-0.2-6.9-0.2c-2.3,0-4.6,0-6.9,0.2
		c-0.6,0-1.1,0.1-1.7,0.1c-0.6,0-1.1,0.1-1.7,0.2c-0.6,0.1-1.1,0.2-1.7,0.3c-0.3,0.1-0.6,0.1-0.8,0.2c-0.3,0.1-0.6,0.1-0.8,0.3
		c0.5-0.3,1.1-0.5,1.6-0.7c0,0,0.1,0,0.1,0c0,0,0,0,0,0c0-0.1-0.2-1.6,0.1-3.7c0-0.1,0.1-0.2,0.2-0.2l0.6-0.2c0.1-4.5,2-6.7,2-6.7
		c-1.7,2.7-1.6,5.9-1.6,6.6l3.6-1c0,0,0,0,0,0c0,0,0,0,0,0c0,0,0,0,0,0c0,0,0,0,0.1,0c0,0,0,0,0,0c0,0,0,0,0,0c0,0,0,0,0,0
		c0,0,0,0,0,0c0,0,0,0,0,0c0,0,0,0,0,0c0,0,0,0,0,0c0,0,0.1,0.1,0.3,0.2c0-1.2,0-4.6,1.7-7.5c0,0.1-1.3,3.9-0.9,8.1
		c0.1,0.1,0.3,0.2,0.4,0.3c0.1,0,0.1,0.1,0.1,0.2c0,0,0,1.4,0.6,2.5c0,0,0,0,0,0.1c1.5-0.1,3-0.1,4.5-0.1c1.5,0,3,0,4.5,0.1
		c0,0,0,0,0-0.1c0.6-1.2,0.6-2.5,0.6-2.5c0-0.1,0-0.2,0.1-0.2c0.1-0.1,0.3-0.2,0.4-0.3c0.4-4.2-0.8-8-0.9-8.1C28,5.7,28,9.1,28,10.3
		c0.2-0.1,0.2-0.2,0.3-0.2c0,0,0,0,0,0c0,0,0,0,0,0c0,0,0,0,0,0c0,0,0,0,0,0c0,0,0,0,0,0c0,0,0,0,0,0c0,0,0,0,0,0c0,0,0,0,0.1,0
		c0,0,0,0,0,0c0,0,0,0,0,0c0,0,0,0,0,0l3.6,1c0-0.7,0-3.9-1.6-6.6c0.1,0.1,1.9,2.2,2,6.7l0.6,0.2c0.1,0,0.2,0.1,0.2,0.2
		c0.4,2.2,0.2,3.7,0.1,3.7c0,0,0,0,0,0C33.5,15.3,33.6,15.3,33.6,15.4z M32.9,15.2c0-0.2,0.2-1.6-0.1-3.4l-4.1-1.2
		c0,0.7,0.1,2.2-0.3,3.6c0,0,0,0,0,0.1c0,0,0.1,0,0.1,0c1.2,0.1,2.3,0.3,3.4,0.6C32.3,15,32.6,15.1,32.9,15.2z M27.9,14.1
		c0.3-1.2,0.4-2.5,0.3-3.3c-0.3,0.2-0.6,0.6-1,0.8c0,0.4-0.1,1.5-0.6,2.5c0.4,0,0.9,0.1,1.3,0.1C27.8,14.2,27.8,14.2,27.9,14.1z
		 M16.5,14.2c-0.5-1-0.6-2.1-0.6-2.5c-0.4-0.3-0.7-0.6-1-0.8c0,0.7,0,2,0.3,3.3c0,0,0,0.1,0,0.1C15.6,14.2,16.1,14.2,16.5,14.2z
		 M14.7,14.3C14.7,14.3,14.7,14.3,14.7,14.3c-0.4-1.5-0.4-3-0.4-3.7l-4.1,1.2c-0.3,1.8-0.1,3.1-0.1,3.4c0.3-0.1,0.7-0.2,1-0.3
		c0.6-0.1,1.1-0.2,1.7-0.3c0.6-0.1,1.1-0.2,1.7-0.2C14.6,14.3,14.7,14.3,14.7,14.3z"/>
	<path class="st1" d="M35.7,31.5l-1.9,0.5l-5-0.1l-3.1-2.4l-3.8,0.9l-4.3-0.4l-2.4,2.7l-4.6,1.4l-2.3-0.7l0.5,0.4
		c-0.1,0-0.2-0.1-0.3-0.1c0.5,0.7,1.1,1.6,1.6,2.3c0.9,1.2,2.1,2.3,4.4,2.3c0.3,0,0.6,0,0.9-0.1c2.3-0.3,2.9-0.4,3.2-0.4
		c0.1,0,0.2,0,0.3,0c0,0,1.9-0.2,2.4-1.4c0.5-1.2,0.7-1.5,0.7-1.5l0.2-0.5c-0.3,0.4-0.5,0.7-0.8,1c-0.3,0.4-0.7,0.8-1.1,1.2
		c0,0-0.1,0.1-0.2,0.1c-0.1,0-0.1,0.1-0.2,0.1c-0.1,0.1-0.3,0.1-0.4,0.1c-0.3,0.1-0.5,0.1-0.8,0.2c-0.5,0.1-1,0.2-1.6,0.2
		c-1,0.1-2.1,0.2-3.2,0.2c-0.1,0-0.3,0-0.4,0c-0.1,0-0.3,0-0.4-0.1c-0.3-0.1-0.5-0.2-0.8-0.3c-0.5-0.3-0.9-0.6-1.2-1
		c0.4,0.4,0.8,0.7,1.3,0.9c0.2,0.1,0.5,0.2,0.7,0.2c0.1,0,0.2,0,0.4,0c0.1,0,0.3,0,0.4,0c0.5,0,1-0.1,1.6-0.1c0.5,0,1-0.1,1.6-0.2
		c0.5-0.1,1-0.1,1.6-0.2c0.3,0,0.5-0.1,0.8-0.1c0.1,0,0.3-0.1,0.4-0.1c0.1,0,0.2-0.1,0.3-0.2c0.2-0.2,0.4-0.4,0.6-0.5
		c0.2-0.2,0.4-0.4,0.5-0.6c0.3-0.3,0.6-0.7,0.9-1c0,0,0.1-0.1,0.1-0.1c0,0,0,0,0,0l0,0c0.1,0,0.1,0.1,0.2,0.1
		c0.4,0.3,0.7,0.6,1.1,0.8c0.5,0.3,0.9,0.6,1.4,0.9c0.1,0.1,0.2,0.1,0.4,0.2c0,0,0,0,0,0c0,0,0,0,0,0c0,0,0.1,0,0.1,0
		c0.1,0,0.1,0,0.2,0c0.3,0,0.5-0.1,0.8-0.1c0.5-0.1,1.1-0.2,1.6-0.3c0.5-0.1,1.1-0.2,1.6-0.3c0.5-0.1,1.1-0.2,1.6-0.4
		c0.3-0.1,0.5-0.1,0.8-0.3c0.2-0.1,0.5-0.3,0.7-0.4c0.4-0.4,0.8-0.8,1.1-1.3c-0.2,0.5-0.6,1-1,1.4c-0.2,0.2-0.4,0.4-0.7,0.5
		c-0.1,0.1-0.3,0.1-0.4,0.2c-0.1,0-0.3,0.1-0.4,0.1c-1.1,0.3-2.2,0.6-3.3,0.8c-0.6,0.1-1.1,0.2-1.7,0.3c-0.3,0-0.6,0.1-0.8,0.1
		c-0.1,0-0.1,0-0.2,0c0,0-0.1,0-0.1,0c0,0,0,0-0.1,0c0,0,0,0-0.1,0c-0.1-0.1-0.3-0.1-0.4-0.2c-0.5-0.3-0.9-0.7-1.4-1
		c-0.3-0.3-0.7-0.6-1-0.9l0.3,0.4c0,0,0.7,0.9,1.6,1.7c0.6,0.6,1.3,0.9,2.1,0.9c0.3,0,0.6,0,0.8-0.1c0.3-0.1,0.6-0.1,0.9-0.2
		c1.1-0.3,2.3-0.5,2.9-0.7c0.1,0,0.2-0.1,0.4-0.1c0.8-0.2,1.9-0.4,2.4-1.6c0.4-0.8,1-1.9,1.4-2.7C35.5,31.7,35.7,31.5,35.7,31.5z"/>
	<path class="st2" d="M6.1,18.6c0.4-0.1,0.8-0.2,1.4-0.3c-0.4,0.2-0.8,0.6-1.2,0.9L6.1,18.6z"/>
	<path class="st5" d="M19,28c0,0,0.1,0.6-0.8,0.9c-0.9,0.3-6.5,1.9-7.1,1.9c-0.6-0.1-2.3-1.2-2.3-1.2l-0.4-1.4l2.3,1.2L19,28z"/>
	<g id="XMLID_3_">
		<polygon class="st4" points="25.9,3.8 25.9,7.2 23.4,7.2 23.4,6.2 22.9,6.2 22.9,10.8 23.7,10.8 23.7,13.4 19.5,13.4 19.5,10.8 
			20.3,10.8 20.3,6.2 19.8,6.2 19.8,7.2 17.4,7.2 17.4,3.8 		"/>
	</g>
	<path class="st5" d="M24,27.8c0,0-0.1,0.6,0.8,0.9c0.9,0.2,6.6,1.7,7.2,1.5c0.6-0.1,2.2-1.3,2.2-1.3l0.3-1.4l-2.2,1.3L24,27.8z"/>
	<path class="st5" d="M5.7,26.8c0,0,0.8,1.6,2,1l0.9,0.3l-0.1,0.7L6.6,29l-0.5-0.3L5.7,26.8z"/>
	<path class="st5" d="M37.5,26.4c0,0-1.3,1.6-2.5,1.1l-0.4,0.3l0.1,0.7l1.9,0.2l0.5-0.3L37.5,26.4z"/>
	<path class="st5" d="M17.9,38.6c0,0,4.6,2.3,9.8-0.8L26,37.6c0,0-3.7,1.4-6.5,0.6L17.9,38.6z"/>
	<polygon class="st0" points="24.1,4.5 22.2,4.5 18.1,4.5 18.1,6.5 19.1,6.5 19.1,5.5 21,5.5 21,11.5 20.2,11.5 20.2,12.6 23,12.6 
		23,11.5 22.2,11.5 22.2,5.5 24.2,5.5 24.2,6.5 25.1,6.5 25.1,4.5 	"/>
	<path class="st4" d="M22.5,34.3l0.3,0.4c0,0,0.7,0.9,1.6,1.7c0.6,0.6,1.3,0.9,2.1,0.9c0.3,0,0.6,0,0.8-0.1c0.3-0.1,0.6-0.1,0.9-0.2
		c1.1-0.3,2.3-0.5,2.9-0.7c0.1,0,0.2-0.1,0.4-0.1c0.8-0.2,1.9-0.4,2.4-1.6c0.4-0.9,1-2,1.4-2.8c-0.4,0.2-0.8,0.4-1,0.5
		c-0.4,0.2-1,0.3-1.7,0.3c-0.4,0-0.9,0-1.3-0.1c-0.9-0.1-2.5-0.3-2.5-0.3l-0.1,0l-0.1-0.1c0,0-1.4-1.1-2.5-2c0,0-0.1-0.1-0.1-0.1
		C25.8,30,25.8,30,25.7,30c-0.4,0-1.4,0.3-3.7,1l-0.1,0L21.7,31c0,0-1.5-0.6-3.3-0.6c-0.1,0-0.3,0-0.4,0c-0.2,0-1.2,0.5-2.5,2.5
		l-0.1,0.1l-0.1,0c0,0-2.2,0.7-4.6,1.4l-0.2,0l-0.1-0.1c0,0-0.9-0.4-1.8-0.8c0.5,0.7,1.1,1.6,1.6,2.3c0.9,1.2,2.1,2.3,4.4,2.3
		c0.3,0,0.6,0,0.9-0.1c2.3-0.3,2.9-0.4,3.2-0.4c0.1,0,0.2,0,0.3,0c0,0,1.9-0.2,2.4-1.4c0.5-1.2,0.7-1.5,0.7-1.5l0.2-0.5l-0.1,0
		c0,0,0.1-0.1,0.1-0.1c0,0,0,0,0,0l0,0C22.4,34.2,22.5,34.2,22.5,34.3L22.5,34.3z M8.1,11.1c-0.5,0.2-1,0.4-1.5,0.6
		c-0.5,0.2-1,0.5-1.4,0.7C4.8,12.8,4.3,13,4,13.3c0,0.1,0,0.2,0,0.3c0,0.1,0,0.3,0,0.4c0,0.3,0,0.5,0,0.8c0,0.5,0,1.1,0.1,1.6
		C4,17,4.1,17.5,4.3,18c0.1,0.3,0.2,0.5,0.2,0.8c0,0.1,0.1,0.2,0.2,0.4c0,0.1,0.1,0.1,0.1,0.2l0,0.1c0,0,0.1,0,0.1,0.1l0.2,0.1
		c0.1,0.1,0.3,0.1,0.5,0.2c0,0,0,0,0,0l-0.4-1.7c0.1,0,0.9-0.2,2.4-0.5c-0.1,0-0.2,0-0.4-0.1c-0.3-0.1-0.7-0.2-1-0.3
		C6.1,17.1,6,17,5.8,16.9c-0.1-0.1-0.3-0.2-0.4-0.3c1.6,0.5,4.9,0.3,7.9,0c2.7-0.3,5.4-0.5,8.1-0.5c2.7,0,5.4,0.2,8.1,0.5
		c3,0.3,6.3,0.5,7.9,0c-0.1,0.1-0.3,0.2-0.4,0.3c-0.1,0.1-0.3,0.2-0.5,0.2c-0.3,0.1-0.6,0.2-1,0.3c0,0-0.1,0-0.1,0
		c1.6,0.3,2.5,0.5,2.6,0.6l-0.4,1.6c0.1,0,0.2-0.1,0.3-0.1l0.2-0.1c0,0,0.1,0,0.1-0.1l0-0.1c0-0.1,0.1-0.1,0.1-0.2
		c0.1-0.1,0.1-0.2,0.2-0.4c0.1-0.2,0.2-0.5,0.2-0.8c0.1-0.5,0.2-1.1,0.3-1.6c0.1-0.5,0.1-1.1,0.1-1.6c0-0.3,0-0.5,0-0.8
		c0-0.1,0-0.3,0-0.4c0-0.1,0-0.2,0-0.3c-0.4-0.3-0.8-0.6-1.2-0.8c-0.5-0.3-0.9-0.5-1.4-0.7c-0.5-0.2-1-0.4-1.5-0.6
		c-0.3-0.1-0.5-0.2-0.8-0.3c-0.3-0.1-0.5-0.2-0.8-0.3c0.5,0.1,1.1,0.2,1.6,0.3c0.3,0.1,0.7,0.2,1,0.3C33.6,4.9,27.9,0.8,21.5,0.8
		C15.2,0.8,9.4,4.9,7,11.2c0.3-0.1,0.7-0.2,1-0.3c0.5-0.1,1.1-0.3,1.6-0.3c-0.3,0.1-0.5,0.2-0.8,0.3C8.6,10.9,8.4,11,8.1,11.1z
		 M40,14.8c0,0.6,0,1.2-0.1,1.7c-0.1,0.6-0.2,1.2-0.3,1.7c-0.1,0.3-0.2,0.6-0.3,0.8c-0.1,0.1-0.1,0.3-0.2,0.4c0,0.1-0.1,0.1-0.1,0.2
		L39,19.8c0,0,0,0.1-0.1,0.1L38.9,20l-0.1,0c-0.1,0.1-0.2,0.1-0.3,0.1l-0.3,0.1c-0.2,0.1-0.3,0.1-0.5,0.2c-0.1,0-0.2,0.1-0.3,0.1
		l-0.3,1.1c0,0-0.1,0-0.3-0.1l0,0.1c0.3,0.2,0.9,0.5,1.2,0.7c0.4,0.4,0.5,0.9,0.4,2c0,0.5-0.2,1.6-0.5,2.6c-0.4,1.7-0.7,1.9-1,1.9
		c-0.1,0-0.4,0.1-0.6,0.1c-0.5,0-1.1,0-1.5-0.1c-0.1,0.4-0.4,1.4-1,2.6c0,0,0.1,0,0.1,0c0.7-0.4,2.2-1,2.2-1l1.1-0.5l-0.6,1.1
		c0,0-1.3,2.4-2,3.9c-0.8,1.5-2.2,1.8-3,2c-0.1,0-0.2,0.1-0.3,0.1c-0.6,0.2-1.8,0.5-2.9,0.7c0,0,0,0,0,0c-0.7,0.4-1.4,0.8-2.2,1.1
		c-2.9,1.1-6,1-8.8,0c-0.5,0.1-1,0.1-1.8,0.2c-0.3,0-0.7,0.1-1,0.1c-2.7,0-4.1-1.3-5.1-2.7C8.4,35.1,7,33,7,32.9l-0.8-1.2l1.3,0.6
		c0.6,0.3,2.5,1.2,3,1.4c0,0,0.1,0,0.1,0c-0.9-1.3-1.6-2.7-2.1-4.3c-0.4,0.1-1.1,0.2-1.6,0.2c-0.2,0-0.4,0-0.5,0
		c-0.3-0.1-0.6-0.4-1.1-2c-0.3-0.9-0.5-2-0.5-2.5c-0.1-1-0.1-1.6,0.3-1.9c0.3-0.2,1.1-0.7,1.3-0.8l0-0.3c-2.8,1.6-4.4,3-4.4,3.1
		l-2,1.7l1.4-2.2c1.1-1.8,2.4-3.2,3.6-4.3c0,0-0.1,0-0.1-0.1l-0.3-0.1c-0.1,0-0.2-0.1-0.3-0.1l-0.1,0l-0.1-0.1c0,0,0-0.1-0.1-0.1
		L4,19.7c0-0.1-0.1-0.1-0.1-0.2c-0.1-0.1-0.1-0.3-0.2-0.4c-0.1-0.3-0.2-0.6-0.3-0.8c-0.2-0.6-0.3-1.1-0.3-1.7
		c-0.1-0.6-0.1-1.2-0.1-1.7c0-0.3,0-0.6,0.1-0.9c0-0.1,0-0.3,0.1-0.4c0-0.1,0.1-0.3,0.1-0.4l0-0.1l0.1-0.1c0.5-0.4,1-0.6,1.5-0.9
		c0.4-0.2,0.8-0.4,1.3-0.5c1.2-3.3,3.2-6.2,5.9-8.3c2.8-2.1,6-3.2,9.4-3.2c3.4,0,6.7,1.1,9.4,3.2c2.7,2,4.7,5,5.9,8.3
		c0.4,0.2,0.8,0.3,1.3,0.5c0.5,0.2,1,0.5,1.5,0.9l0.1,0.1l0,0.1c0,0.2,0.1,0.3,0.1,0.4c0,0.1,0.1,0.3,0.1,0.4
		C39.9,14.2,40,14.5,40,14.8z M37.6,24.4c0.1-1,0-1.2-0.1-1.3c-0.1-0.1-0.4-0.3-0.8-0.5l-0.6,3.9c0,0.1-0.1,0.1-0.1,0.2l-0.8,0.6
		c-0.1,0.3-0.1,0.5-0.2,0.8c0.5,0.1,1.2,0.2,1.6,0.1C37,27.8,37.5,25.6,37.6,24.4z M36.6,20.9l0.6-2.3c-0.9-0.2-2.5-0.5-4.6-0.8
		c-1.1,0.8-2.3,1.4-3.5,1.9C32.7,20.1,35.3,20.6,36.6,20.9z M35.6,26.3l0.7-4.7c-0.3-0.1-0.7-0.1-1.1-0.2l-0.6,4.3
		c0,0.1-0.1,0.1-0.1,0.2l-2.3,1.6c-0.1,0-0.1,0.1-0.2,0L25,26.7c-0.1,0-0.2-0.1-0.2-0.2l-1.2-4.1c-0.3-0.1-1.2-0.3-1.9-0.3
		c-0.8,0-1.6,0.2-1.9,0.3l-1.2,4.1c0,0.1-0.1,0.1-0.1,0.2c0,0,0,0-0.1,0l-6.9,1.5c0,0,0,0-0.1,0c-0.1,0-0.1,0-0.2,0l-2.3-1.6
		c-0.1,0-0.1-0.1-0.1-0.2l-0.6-5c-0.3,0-0.5,0.1-0.7,0.1c-0.1,0.1-0.3,0.2-0.4,0.2l0.7,5.3l3.3,2.3l8.4-1.9l1.2-4.1
		c0-0.1,0.1-0.2,0.2-0.2c0.3-0.1,0.6-0.1,0.8-0.1c0.2,0,0.5,0,0.8,0.1c0.1,0,0.2,0.1,0.2,0.2l1.3,4.2l8.5,1L35.6,26.3z M34,25.4
		l0.6-4.2c-1.7-0.3-4.2-0.7-7.2-0.9c-2.7,0.9-5,1.2-5.2,1.2l-0.2,0c0.9,0.1,1.7,0.3,1.7,0.3c0.1,0,0.2,0.1,0.2,0.2l1.2,4.1l6.6,0.8
		L34,25.4z M34.5,27.8L34.2,28l-0.8,0.5l-0.8,0.6c-0.1,0-0.1,0.1-0.2,0l-8.1-0.9l-0.6-0.1c-0.1,0-0.2-0.1-0.2-0.2l-1.3-4.2
		c-0.2,0-0.4,0-0.6,0c-0.2,0-0.4,0-0.6,0l-1.2,4.1c0,0.1-0.1,0.2-0.2,0.2L10.9,30c0,0,0,0-0.1,0c-0.1,0-0.1,0-0.2-0.1l-0.3-0.2
		l-0.9-0.7v0L9,28.8c0,0.1,0.1,0.2,0.1,0.3l0,0c0.1,0.2,0.8,2.3,2.3,4.4c1.6-0.5,3-0.9,3.4-1c0.9-1.4,2.2-2.8,3.1-2.8
		c0.2,0,0.3,0,0.5,0c0.4,0,0.9,0,1.3,0.1c-0.3-0.3-0.4-0.7-0.5-0.8c0,0,1.2,0.9,2.6,0.7c1.5-0.2,2.4-1,2.4-1s0,0.6-0.6,1.1
		c1.2-0.4,1.7-0.5,2.1-0.5c0.4,0,0.6,0.2,0.7,0.3c0,0,0.1,0.1,0.1,0.1c1,0.7,2.1,1.7,2.4,1.9c0.4,0,1.6,0.2,2.4,0.3
		c0.4,0,0.8,0.1,1.2,0.1c0.1,0,0.2,0,0.4,0c0.5-1,1-2.1,1.4-3.3C34.4,28.2,34.4,28,34.5,27.8z M31.5,17.5
		C31.5,17.5,31.5,17.5,31.5,17.5c-0.7-0.1-1.3-0.1-2-0.1c-0.9-0.1-1.8-0.1-2.7-0.1c-0.1,0.1-0.2,0.2-0.3,0.4
		c-0.5,0.7-1.5,1.9-2.7,2.9c1.8-0.3,4.9-1.1,7.6-3C31.3,17.6,31.4,17.5,31.5,17.5z M25.5,17.7c0.1-0.1,0.1-0.2,0.2-0.3
		c-0.7,0.1-1.3,0.2-1.9,0.3c-2.2,0.4-4.2,1.1-5.8,1.8c1.2-0.1,2.4-0.1,3.7-0.1c0.8,0,1.5,0,2.3,0C24.6,18.8,25.1,18.2,25.5,17.7z
		 M26.2,38.1c-0.9-0.1-1.7-0.4-2.4-1.1c0,0-0.1-0.1-0.1-0.1c-0.3,0.1-0.6,0.1-1,0.1c-0.1,0-0.3,0-0.4,0l-0.2,0l-0.1,0
		c-0.9,1.3-2.8,1.6-2.9,1.6c-0.1,0-0.1,0-0.2,0c1.1,0.3,2.2,0.4,3.3,0.4C23.3,39,24.7,38.7,26.2,38.1z M22.7,36.6
		c0.2,0,0.4,0,0.6-0.1c-0.3-0.3-0.5-0.6-0.7-0.8c-0.1,0.2-0.2,0.5-0.4,0.9h0C22.4,36.6,22.6,36.6,22.7,36.6z M22,20.9
		c0.4-0.2,0.7-0.5,1-0.7c-0.5,0-1,0-1.5,0c-2,0-3.9,0.1-5.6,0.2c-1.7,0.8-2.8,1.5-2.8,1.6L11.6,23l1.1-1.6c0.2-0.3,0.4-0.5,0.6-0.8
		c-1.9,0.2-3.5,0.5-4.7,0.7l0.6,4.9l2.1,1.5l6.6-1.5l1.2-4.1c0-0.1,0.1-0.1,0.1-0.2c0,0,0,0,0.1,0c0,0,0.7-0.2,1.5-0.3L22,20.9z
		 M22.8,17.1c-0.5,0-0.9,0-1.4,0h0c-0.7,0-1.4,0-2,0l-1.3,0.6c0,0,0,0,0,0c-0.2,0.1-1.8,0.9-3.4,2.4c1.4-0.7,3.4-1.7,5.8-2.4
		C21.3,17.5,22,17.3,22.8,17.1z M14.1,19.8c0.7-0.6,1.3-1.2,1.9-1.6c-2.3,0.5-4.4,1.3-6.2,2.2C10.9,20.1,12.4,19.9,14.1,19.8z
		 M14.5,17.8c0.8-0.2,1.6-0.4,2.4-0.6c-1.2,0-2.3,0.1-3.5,0.2c-0.7,0-1.3,0.1-2,0.1c-0.3,0-0.7,0.1-1,0.1c-0.1,0-0.2,0-0.3,0
		c-0.9,0.5-4.2,2.6-6.5,5.4C5.8,21.4,9.7,19.1,14.5,17.8z M8.3,28.6c0-0.1-0.1-0.3-0.1-0.4l-1-0.7c-0.1,0-0.1-0.1-0.1-0.2l-0.5-4.1
		c-0.4,0.2-0.8,0.4-0.9,0.5C5.5,23.8,5.4,24,5.5,25c0.1,1.2,0.7,3.5,1.1,3.8C7,28.8,7.9,28.7,8.3,28.6z M7.5,18.3
		c-0.6,0.1-1.1,0.2-1.4,0.3l0.2,0.6C6.8,18.9,7.2,18.6,7.5,18.3z"/>
</g>
<path class="st1" d="M22.8,17.1c-0.5,0-0.9,0-1.4,0h0c-0.7,0-1.4,0-2,0l-1.3,0.6c0,0,0,0,0,0c-0.2,0.1-1.8,0.9-3.3,2.4c0,0,0,0,0,0
	c1.4-0.7,3.4-1.7,5.8-2.4C21.3,17.5,22,17.3,22.8,17.1z"/>
<path class="st1" d="M10.4,17.6c-0.1,0-0.2,0-0.3,0c-0.9,0.5-4.2,2.6-6.5,5.4c2.2-1.6,6.1-3.9,10.9-5.2c0.8-0.2,1.6-0.4,2.4-0.6
	c-1.2,0-2.3,0.1-3.5,0.2c-0.7,0-1.3,0.1-2,0.1C11,17.5,10.7,17.6,10.4,17.6z"/>
</svg>
