<?xml version="1.0" encoding="utf-8"?>
<!-- Generator: Adobe Illustrator 19.1.0, SVG Export Plug-In . SVG Version: 6.00 Build 0)  -->
<svg version="1.1" id="Layer_1" xmlns="http://www.w3.org/2000/svg" xmlns:xlink="http://www.w3.org/1999/xlink" x="0px" y="0px"
	 viewBox="0 0 19.4 15.9" style="enable-background:new 0 0 19.4 15.9;" xml:space="preserve">
<style type="text/css">
	.st0{fill:#81CAA7;}
</style>
<g>
	<path class="st0" d="M6.3,15.9c-2.1,0-4.2-0.6-6-1.8C0,14-0.1,13.8,0,13.5c0.1-0.2,0.3-0.4,0.5-0.3c1.5,0.2,2.9-0.1,4.1-0.8
		C3.5,12,2.5,11,2.1,9.7C2,9.5,2.1,9.3,2.2,9.2c0,0,0.1-0.1,0.1-0.1c-1-0.8-1.6-2-1.6-3.3c0-0.2,0.1-0.4,0.3-0.5
		c0.1-0.1,0.2-0.1,0.4-0.1C1,4.6,0.8,3.9,0.8,3.1c0-0.7,0.2-1.5,0.6-2.1c0.1-0.1,0.2-0.2,0.4-0.3c0.2,0,0.3,0.1,0.4,0.2
		c1.7,2.1,4.1,3.4,6.7,3.7c0-0.1,0-0.2,0-0.3c0-2.4,1.9-4.3,4.3-4.3c1.1,0,2.1,0.4,2.9,1.1c0.7-0.2,1.3-0.4,2-0.8
		c0.2-0.1,0.4-0.1,0.6,0c0.2,0.1,0.2,0.4,0.2,0.6c-0.1,0.3-0.3,0.7-0.4,1c0.1,0,0.2-0.1,0.3-0.1c0.2-0.1,0.5,0,0.6,0.1
		c0.1,0.2,0.2,0.4,0,0.6c-0.5,0.7-1.1,1.4-1.8,1.9c0,0.1,0,0.2,0,0.2C17.5,10.2,13.3,15.9,6.3,15.9z M2.6,14.2
		c1.2,0.5,2.4,0.7,3.7,0.7c6.4,0,10.2-5.2,10.2-10.2c0-0.2,0-0.3,0-0.5c0-0.2,0.1-0.3,0.2-0.4c0.2-0.2,0.4-0.3,0.6-0.5
		c-0.2,0-0.4,0.1-0.5,0.1c-0.2,0-0.5-0.1-0.5-0.3c-0.1-0.2,0-0.5,0.2-0.6C16.6,2.3,16.8,2.1,17,2c-0.3,0.1-0.6,0.2-1,0.3
		c-0.2,0-0.4,0-0.5-0.2c-0.6-0.7-1.5-1-2.4-1C11.4,1,10,2.5,10,4.3C10,4.5,10,4.8,10,5c0,0.2,0,0.3-0.1,0.5C9.8,5.6,9.7,5.7,9.5,5.7
		C6.6,5.5,3.9,4.2,1.9,2.2C1.8,2.5,1.8,2.8,1.8,3.1c0,1.1,0.5,2.1,1.4,2.7c0.2,0.1,0.3,0.4,0.2,0.6C3.4,6.6,3.2,6.7,2.9,6.7
		c-0.4,0-0.7-0.1-1.1-0.2C2.2,7.8,3.1,8.7,4.4,9c0.2,0,0.4,0.3,0.4,0.5c0,0.2-0.2,0.5-0.4,0.5c-0.3,0.1-0.7,0.1-1,0.1
		C4,11,5,11.6,6.1,11.6c0.2,0,0.4,0.1,0.5,0.4c0.1,0.2,0,0.4-0.2,0.6C5.3,13.4,4,14,2.6,14.2z"/>
</g>
</svg>
