<?xml version="1.0" encoding="utf-8"?>
<!-- Generator: Adobe Illustrator 21.1.0, SVG Export Plug-In . SVG Version: 6.00 Build 0)  -->
<svg version="1.1" id="Travis_Foundation_Heart" xmlns="http://www.w3.org/2000/svg" xmlns:xlink="http://www.w3.org/1999/xlink"
	 x="0px" y="0px" viewBox="0 0 291.169 236.802" style="enable-background:new 0 0 291.169 236.802;" xml:space="preserve">
<style type="text/css">
	.st0{fill:#81CAA7;}
	.st1{fill:#9AD3B3;}
	.st2{fill:#88CCA7;}
	.st3{fill:#9DD5B8;}
	.st4{fill:#ABDABD;}
	.st5{fill:#93D0AC;}
	.st6{fill:#C6E5D1;}
	.st7{fill:#8CCEA7;}
	.st8{fill:#83C8A4;}
	.st9{fill:#A7D8BC;}
	.st10{fill:#B4DEC8;}
</style>
<g>
	<polygon class="st0" points="0,75.81 23.669,35.76 89.091,0 145.29,42.418 200.708,0 266.82,33.236 291.169,72.799 
		221.157,157.863 147.373,236.802 71.852,159.433 	"/>
	<g>
		<polygon class="st1" points="223.275,70.743 221.157,157.863 291.127,72.802 		"/>
		<polygon class="st2" points="146.459,158.067 147.373,236.802 221.272,157.731 		"/>
		<polygon class="st3" points="223.275,70.743 145.835,100.716 146.394,158.336 		"/>
		<polygon class="st4" points="145.835,100.716 200.708,0 223.275,70.743 		"/>
		<polygon class="st5" points="145.811,100.737 145.229,42.465 200.708,0 		"/>
		<polygon class="st6" points="291.169,72.799 266.82,33.236 200.708,0 223.275,70.743 		"/>
		<polygon class="st5" points="146.412,158.321 223.275,70.743 221.157,157.863 		"/>
		<g>
			<polygon class="st7" points="67.966,72.374 71.852,159.433 0.042,75.812 			"/>
			<polygon class="st0" points="146.591,158.373 67.966,72.374 71.852,159.433 			"/>
			<polygon class="st8" points="146.608,158.372 147.396,236.745 71.852,159.433 			"/>
			<polygon class="st4" points="67.966,72.374 145.999,100.769 146.61,158.389 			"/>
			<polygon class="st9" points="145.999,100.769 89.091,0 67.966,72.374 			"/>
			<polygon class="st3" points="146.023,100.79 145.421,42.517 89.091,0 			"/>
			<polygon class="st10" points="0,75.81 23.669,35.76 89.091,0 67.966,72.374 			"/>
		</g>
	</g>
</g>
</svg>
